<svg id="Layer_1" enable-background="new 0 0 512.031 512.031" height="512" viewBox="0 0 512.031 512.031" width="512" xmlns="http://www.w3.org/2000/svg"><g><path d="m201.161 141.725h109.71v76.47h-109.71z" fill="#454040"/><path d="m256.016 141.725h54.855v76.47h-54.855z" fill="#2e2e2e"/><path d="m0 128.191h110.467v90.004h-110.467z" fill="#454040"/><path d="m0 188.195h512.031v295.47h-512.031z" fill="#eceae7"/><path d="m256.016 188.195h256.016v295.47h-256.016z" fill="#e7dfdd"/><circle cx="256.016" cy="335.93" fill="#665e66" r="147.735"/><path d="m256.016 188.195v295.47c81.461 0 147.735-66.274 147.735-147.735s-66.274-147.735-147.735-147.735z" fill="#454040"/><circle cx="256.016" cy="335.93" fill="#f9f9f9" r="88.526"/><path d="m163.783 43.366h184.465v98.359h-184.465z" fill="#f9f9f9"/><path d="m256.016 43.366h92.232v98.359h-92.232z" fill="#eceae7"/><path d="m363.248 156.725h-214.465v-128.359h214.465zm-184.465-30h154.465v-68.359h-154.465z" fill="#665e66"/><path d="m363.248 28.366h-107.232v30h77.232v68.359h-77.232v30h107.232z" fill="#454040"/><g><path d="m421.68 247.232h30v30.002h-30z" fill="#ff405c"/></g><g><path d="m421.68 247.232h30v30.002h-30z" fill="#c1126b"/></g><path d="m344.542 335.93c0-48.813-39.712-88.526-88.526-88.526v177.052c48.813 0 88.526-39.713 88.526-88.526z" fill="#eceae7"/></g></svg>